<svg height="32" viewBox="0 0 32 32" width="32"
    xmlns="http://www.w3.org/2000/svg">
    <path d="m16 2.899 13.409 26.726h-26.819l13.409-26.726zm0-2.899c-.69 0-1.379.465-1.903 1.395l-13.659 27.222c-1.046 1.86-.156 3.383 1.978 3.383h27.166c2.134 0 3.025-1.522 1.978-3.383l-13.659-27.222c-.523-.93-1.213-1.395-1.903-1.395z"/>
    <path d="m18 26c0 1.105-.895 2-2 2s-2-.895-2-2 .895-2 2-2 2 .895 2 2z"/>
    <path d="m16 22c-1.105 0-2-.895-2-2v-6c0-1.105.895-2 2-2s2 .895 2 2v6c0 1.105-.895 2-2 2z"/>
</svg>